{"asset":{"generator":"3D Builder","version":"2.0"},"scene":0,"scenes":[{"nodes":[0]}],"nodes":[{"mesh":0,"matrix":[1,0,0,0,0,-1.1920928955078125E-7,-0.99999988079071045,0,0,0.99999988079071045,-1.1920928955078125E-7,0,-0.0024098455905914307,-0.32621756196022034,-0.24997603893280029,1]}],"meshes":[{"primitives":[{"attributes":{"POSITION":0,"TEXCOORD_0":1},"mode":4,"indices":2,"material":0}]}],"materials":[{"name":"66","pbrMetallicRoughness":{"baseColorFactor":[1,1,1,1],"metallicFactor":1,"roughnessFactor":1,"baseColorTexture":{"index":0,"texCoord":0},"metallicRoughnessTexture":{"index":1,"texCoord":0}}}],"textures":[{"source":0,"sampler":0},{"source":1,"sampler":0}],"images":[{"uri":"texture_0_6195987693227547908.png"},{"uri":"texture_1_17319628118832143767.png"}],"samplers":[{"magFilter":9729,"wrapS":10497,"wrapT":10497}],"accessors":[{"bufferView":0,"byteOffset":0,"count":374,"componentType":5126,"type":"VEC3","min":[-0.29750585556030273,-0.25747618079185486,0.32621756196022034],"max":[0.3023255467414856,-0.24247604608535767,0.470075786113739]},{"bufferView":1,"byteOffset":0,"count":374,"componentType":5126,"type":"VEC2"},{"bufferView":2,"byteOffset":0,"count":2184,"componentType":5125,"type":"SCALAR"}],"bufferViews":[{"buffer":0,"byteOffset":0,"byteLength":4488,"byteStride":12,"target":34962},{"buffer":0,"byteOffset":4488,"byteLength":2992,"byteStride":8,"target":34962},{"buffer":0,"byteOffset":7480,"byteLength":8736,"target":34963}],"buffers":[{"byteLength":16216,"uri":"A1A2.bin"}]}