{"asset":{"generator":"3D Builder","version":"2.0"},"scene":0,"scenes":[{"nodes":[0]}],"nodes":[{"mesh":0,"matrix":[1,0,0,0,0,-1.1920928955078125E-7,-0.99999988079071045,0,0,0.99999988079071045,-1.1920928955078125E-7,0,0.044012248516082764,0.43337157368659973,-0.48366665840148926,1]}],"meshes":[{"primitives":[{"attributes":{"POSITION":0,"TEXCOORD_0":1},"mode":4,"indices":2,"material":0}]}],"materials":[{"name":"76","pbrMetallicRoughness":{"baseColorFactor":[1,1,1,1],"metallicFactor":1,"roughnessFactor":1,"baseColorTexture":{"index":0,"texCoord":0},"metallicRoughnessTexture":{"index":1,"texCoord":0}}}],"textures":[{"source":0,"sampler":0},{"source":1,"sampler":0}],"images":[{"uri":"texture_0_6195987693227547908.png"},{"uri":"texture_0_17319628118832143767.png"}],"samplers":[{"magFilter":9729,"wrapS":10497,"wrapT":10497}],"accessors":[{"bufferView":0,"byteOffset":0,"count":70,"componentType":5126,"type":"VEC3","min":[-0.38814714550971985,-0.60577094554901123,-0.43337172269821167],"max":[0.30012264847755432,-0.36156231164932251,0.73111379146575928]},{"bufferView":1,"byteOffset":0,"count":70,"componentType":5126,"type":"VEC2"},{"bufferView":2,"byteOffset":0,"count":324,"componentType":5125,"type":"SCALAR"}],"bufferViews":[{"buffer":0,"byteOffset":0,"byteLength":840,"byteStride":12,"target":34962},{"buffer":0,"byteOffset":840,"byteLength":560,"byteStride":8,"target":34962},{"buffer":0,"byteOffset":1400,"byteLength":1296,"target":34963}],"buffers":[{"byteLength":2696,"uri":"APIIIISETA.bin"}]}