{"asset":{"generator":"3D Builder","version":"2.0"},"scene":0,"scenes":[{"nodes":[0]}],"nodes":[{"mesh":0,"matrix":[1,0,0,0,0,-1.1920928955078125E-7,-0.99999988079071045,0,0,0.99999988079071045,-1.1920928955078125E-7,0,-0.026723828166723251,-0.4525873064994812,-0.2499760240316391,1]}],"meshes":[{"primitives":[{"attributes":{"POSITION":0,"TEXCOORD_0":1},"mode":4,"indices":2,"material":0}]}],"materials":[{"name":"66","pbrMetallicRoughness":{"baseColorFactor":[1,1,1,1],"metallicFactor":1,"roughnessFactor":1,"baseColorTexture":{"index":0,"texCoord":0},"metallicRoughnessTexture":{"index":1,"texCoord":0}}}],"textures":[{"source":0,"sampler":0},{"source":1,"sampler":0}],"images":[{"uri":"texture_0_6195987693227547908.png"},{"uri":"texture_1_17319628118832143767.png"}],"samplers":[{"magFilter":9729,"wrapS":10497,"wrapT":10497}],"accessors":[{"bufferView":0,"byteOffset":0,"count":972,"componentType":5126,"type":"VEC3","min":[-0.47867950797080994,-0.25747624039649963,0.452587366104126],"max":[0.53212714195251465,-0.24247600138187408,0.58268469572067261]},{"bufferView":1,"byteOffset":0,"count":972,"componentType":5126,"type":"VEC2"},{"bufferView":2,"byteOffset":0,"count":5736,"componentType":5125,"type":"SCALAR"}],"bufferViews":[{"buffer":0,"byteOffset":0,"byteLength":11664,"byteStride":12,"target":34962},{"buffer":0,"byteOffset":11664,"byteLength":7776,"byteStride":8,"target":34962},{"buffer":0,"byteOffset":19440,"byteLength":22944,"target":34963}],"buffers":[{"byteLength":42384,"uri":"laboratorios.bin"}]}