{"asset":{"generator":"3D Builder","version":"2.0"},"scene":0,"scenes":[{"nodes":[0,1,2]}],"nodes":[{"mesh":0,"matrix":[1,0,0,0,0,-1.1920928955078125E-7,-0.99999988079071045,0,0,0.99999988079071045,-1.1920928955078125E-7,0,-0.13013285398483276,0.25599926710128784,-0.25777354836463928,1]},{"mesh":1,"matrix":[1,0,0,0,0,-1.1920928955078125E-7,-0.99999988079071045,0,0,0.99999988079071045,-1.1920928955078125E-7,0,-0.13013285398483276,0.25599926710128784,-0.25777354836463928,1]},{"mesh":2,"matrix":[0.99999994039535522,0,0,0,0,-1.1920928244535389E-7,-0.99999982118606567,0,0,0.99999982118606567,-1.1920928244535389E-7,0,-0.13013283908367157,0.25599926710128784,-0.25777354836463928,1]}],"meshes":[{"primitives":[{"attributes":{"POSITION":0,"TEXCOORD_0":1},"mode":4,"indices":2,"material":0}]},{"primitives":[{"attributes":{"POSITION":3,"TEXCOORD_0":4},"mode":4,"indices":5,"material":1}]},{"primitives":[{"attributes":{"POSITION":6,"TEXCOORD_0":7},"mode":4,"indices":8,"material":2}]}],"materials":[{"name":"80","pbrMetallicRoughness":{"baseColorFactor":[1,1,1,1],"metallicFactor":1,"roughnessFactor":1,"baseColorTexture":{"index":0,"texCoord":0},"metallicRoughnessTexture":{"index":1,"texCoord":0}}},{"name":"82","pbrMetallicRoughness":{"baseColorFactor":[1,1,1,1],"metallicFactor":1,"roughnessFactor":1,"baseColorTexture":{"index":0,"texCoord":0},"metallicRoughnessTexture":{"index":1,"texCoord":0}}},{"pbrMetallicRoughness":{"baseColorFactor":[1,1,1,1],"metallicFactor":1,"roughnessFactor":1,"baseColorTexture":{"index":2,"texCoord":0},"metallicRoughnessTexture":{"index":3,"texCoord":0}}}],"textures":[{"source":0,"sampler":0},{"source":1,"sampler":0},{"source":2,"sampler":0},{"source":3,"sampler":0}],"images":[{"uri":"texture_4_11563080508590297124.png"},{"uri":"texture_5_12154559721164250551.png"},{"uri":"texture_0_6195987693227547908.png"},{"uri":"texture_1_17319628118832143767.png"}],"samplers":[{"magFilter":9729,"wrapS":10497,"wrapT":10497}],"accessors":[{"bufferView":0,"byteOffset":0,"count":972,"componentType":5126,"type":"VEC3","min":[-0.10073396563529968,-0.32532089948654175,0.41794615983963013],"max":[0.27248692512512207,-0.31032082438468933,0.46598207950592041]},{"bufferView":1,"byteOffset":0,"count":972,"componentType":5126,"type":"VEC2"},{"bufferView":2,"byteOffset":0,"count":5736,"componentType":5125,"type":"SCALAR"},{"bufferView":3,"byteOffset":0,"count":906,"componentType":5126,"type":"VEC3","min":[-0.10073398798704147,-0.32532089948654175,0.31873181462287903],"max":[0.24698832631111145,-0.31032082438468933,0.38173016905784607]},{"bufferView":4,"byteOffset":0,"count":906,"componentType":5126,"type":"VEC2"},{"bufferView":5,"byteOffset":0,"count":5376,"componentType":5125,"type":"SCALAR"},{"bufferView":6,"byteOffset":0,"count":4718,"componentType":5126,"type":"VEC3","min":[-0.19390638172626495,-0.28408539295196533,-0.25599932670593262],"max":[0.45417165756225586,-0.19022919237613678,0.59960705041885376]},{"bufferView":7,"byteOffset":0,"count":4718,"componentType":5126,"type":"VEC2"},{"bufferView":8,"byteOffset":0,"count":18186,"componentType":5125,"type":"SCALAR"}],"bufferViews":[{"buffer":0,"byteOffset":0,"byteLength":11664,"byteStride":12,"target":34962},{"buffer":0,"byteOffset":11664,"byteLength":7776,"byteStride":8,"target":34962},{"buffer":0,"byteOffset":19440,"byteLength":22944,"target":34963},{"buffer":0,"byteOffset":42384,"byteLength":10872,"byteStride":12,"target":34962},{"buffer":0,"byteOffset":53256,"byteLength":7248,"byteStride":8,"target":34962},{"buffer":0,"byteOffset":60504,"byteLength":21504,"target":34963},{"buffer":0,"byteOffset":82008,"byteLength":56616,"byteStride":12,"target":34962},{"buffer":0,"byteOffset":138624,"byteLength":37744,"byteStride":8,"target":34962},{"buffer":0,"byteOffset":176368,"byteLength":72744,"target":34963}],"buffers":[{"byteLength":249112,"uri":"laboratios reprografia seta.bin"}]}