{"asset":{"generator":"3D Builder","version":"2.0"},"scene":0,"scenes":[{"nodes":[0,1,2]}],"nodes":[{"mesh":0,"matrix":[1,0,0,0,0,-1.1920928955078125E-7,-0.99999988079071045,0,0,0.99999988079071045,-1.1920928955078125E-7,0,0.031035501509904861,0.30872520804405212,-0.27854275703430176,1]},{"mesh":1,"matrix":[1,0,0,0,0,-1.1920928955078125E-7,-0.99999988079071045,0,0,0.99999988079071045,-1.1920928955078125E-7,0,0.031035501509904861,0.30872520804405212,-0.27854275703430176,1]},{"mesh":2,"matrix":[0.99999994039535522,0,0,0,0,-1.1920928244535389E-7,-0.99999982118606567,0,0,0.99999982118606567,-1.1920928244535389E-7,0,0.031035501509904861,0.30872517824172974,-0.27854275703430176,1]}],"meshes":[{"primitives":[{"attributes":{"POSITION":0,"TEXCOORD_0":1},"mode":4,"indices":2,"material":0}]},{"primitives":[{"attributes":{"POSITION":3,"TEXCOORD_0":4},"mode":4,"indices":5,"material":1}]},{"primitives":[{"attributes":{"POSITION":6,"TEXCOORD_0":7},"mode":4,"indices":8,"material":2}]}],"materials":[{"name":"61","pbrMetallicRoughness":{"baseColorFactor":[1,1,1,1],"metallicFactor":1,"roughnessFactor":1,"baseColorTexture":{"index":0,"texCoord":0},"metallicRoughnessTexture":{"index":1,"texCoord":0}}},{"name":"63","pbrMetallicRoughness":{"baseColorFactor":[1,1,1,1],"metallicFactor":1,"roughnessFactor":1,"baseColorTexture":{"index":0,"texCoord":0},"metallicRoughnessTexture":{"index":1,"texCoord":0}}},{"pbrMetallicRoughness":{"baseColorFactor":[1,1,1,1],"metallicFactor":1,"roughnessFactor":1,"baseColorTexture":{"index":2,"texCoord":0},"metallicRoughnessTexture":{"index":3,"texCoord":0}}}],"textures":[{"source":0,"sampler":0},{"source":1,"sampler":0},{"source":2,"sampler":0},{"source":3,"sampler":0}],"images":[{"uri":"texture_4_11563080508590297124.png"},{"uri":"texture_5_12154559721164250551.png"},{"uri":"texture_0_6195987693227547908.png"},{"uri":"texture_1_17319628118832143767.png"}],"samplers":[{"magFilter":9729,"wrapS":10497,"wrapT":10497}],"accessors":[{"bufferView":0,"byteOffset":0,"count":476,"componentType":5126,"type":"VEC3","min":[-0.080011479556560516,-0.33952590823173523,0.17163306474685669],"max":[0.14280509948730469,-0.3245258629322052,0.21951307356357574]},{"bufferView":1,"byteOffset":0,"count":476,"componentType":5126,"type":"VEC2"},{"bufferView":2,"byteOffset":0,"count":2784,"componentType":5125,"type":"SCALAR"},{"bufferView":3,"byteOffset":0,"count":374,"componentType":5126,"type":"VEC3","min":[-0.082006506621837616,-0.33952590823173523,0.079993478953838348],"max":[0.139469712972641,-0.3245258629322052,0.13311035931110382]},{"bufferView":4,"byteOffset":0,"count":374,"componentType":5126,"type":"VEC2"},{"bufferView":5,"byteOffset":0,"count":2184,"componentType":5125,"type":"SCALAR"},{"bufferView":6,"byteOffset":0,"count":4717,"componentType":5126,"type":"VEC3","min":[-0.26070764660835266,-0.28408202528953552,-0.30872529745101929],"max":[0.19863633811473846,-0.2175617516040802,0.29771032929420471]},{"bufferView":7,"byteOffset":0,"count":4717,"componentType":5126,"type":"VEC2"},{"bufferView":8,"byteOffset":0,"count":18126,"componentType":5125,"type":"SCALAR"}],"bufferViews":[{"buffer":0,"byteOffset":0,"byteLength":5712,"byteStride":12,"target":34962},{"buffer":0,"byteOffset":5712,"byteLength":3808,"byteStride":8,"target":34962},{"buffer":0,"byteOffset":9520,"byteLength":11136,"target":34963},{"buffer":0,"byteOffset":20656,"byteLength":4488,"byteStride":12,"target":34962},{"buffer":0,"byteOffset":25144,"byteLength":2992,"byteStride":8,"target":34962},{"buffer":0,"byteOffset":28136,"byteLength":8736,"target":34963},{"buffer":0,"byteOffset":36872,"byteLength":56604,"byteStride":12,"target":34962},{"buffer":0,"byteOffset":93476,"byteLength":37736,"byteStride":8,"target":34962},{"buffer":0,"byteOffset":131212,"byteLength":72504,"target":34963}],"buffers":[{"byteLength":203716,"uri":"SETA CANTINA AA12.bin"}]}